<?xml version="1.0" standalone="no"?>
<!DOCTYPE svg PUBLIC "-//W3C//DTD SVG 20010904//EN"
 "http://www.w3.org/TR/2001/REC-SVG-20010904/DTD/svg10.dtd">
<svg version="1.0" xmlns="http://www.w3.org/2000/svg"
 width="1002.000000pt" height="1280.000000pt" viewBox="0 0 1002.000000 1280.000000"
 preserveAspectRatio="xMidYMid meet">
<metadata>
Created by potrace 1.15, written by Peter Selinger 2001-2017
</metadata>
<g transform="translate(0.000000,1280.000000) scale(0.100000,-0.100000)"
fill="#000000" stroke="none">
<path d="M3596 12702 c-7 -67 -104 -752 -197 -1386 -27 -186 -49 -342 -49
-347 0 -4 -38 -25 -84 -48 -266 -129 -513 -415 -683 -794 -283 -630 -352
-1474 -182 -2232 145 -651 487 -1176 884 -1356 119 -54 208 -73 335 -73 138 0
216 18 349 80 117 55 202 116 306 218 281 279 491 721 594 1256 124 640 71
1375 -141 1940 -170 455 -439 806 -728 950 -25 12 -46 23 -47 24 -11 9 -333
1748 -333 1799 0 55 -18 33 -24 -31z"/>
<path d="M6520 12602 c0 -25 -220 -1579 -236 -1669 -4 -19 -12 -33 -20 -33
-27 0 -157 -50 -213 -81 -389 -218 -698 -728 -836 -1380 -175 -826 -59 -1760
295 -2379 423 -737 1078 -891 1596 -373 410 409 654 1147 654 1973 -1 531
-106 1036 -299 1435 -107 221 -199 360 -333 501 -61 64 -192 173 -242 201 -10
6 -42 152 -105 478 -107 557 -215 1145 -232 1268 -13 84 -29 118 -29 59z"/>
<path d="M451 9425 c-35 -16 -80 -52 -125 -98 -149 -151 -250 -425 -303 -822
-24 -180 -23 -636 1 -819 32 -244 80 -427 147 -556 l39 -76 -10 -129 c-42
-510 155 -1178 501 -1695 184 -276 428 -526 658 -675 103 -67 262 -140 361
-167 123 -33 325 -33 425 0 136 46 252 133 340 256 249 352 263 992 36 1622
-157 435 -379 793 -675 1090 -228 227 -423 355 -651 427 -110 35 -245 50 -332
37 -108 -15 -99 -21 -153 93 -96 204 -157 412 -186 640 -14 110 -16 181 -10
432 3 165 9 337 12 383 8 95 7 95 -75 57z"/>
<path d="M9494 9368 c14 -197 19 -675 7 -778 -25 -218 -85 -441 -169 -629
l-37 -84 -155 -2 c-136 -2 -166 -5 -245 -29 -134 -39 -332 -142 -460 -237
-124 -93 -337 -301 -439 -429 -321 -405 -553 -919 -643 -1430 -19 -111 -26
-193 -30 -350 -8 -317 26 -503 132 -715 138 -277 353 -418 635 -417 167 0 277
29 465 122 346 172 695 529 944 967 213 375 358 806 401 1188 16 148 14 414
-5 533 l-16 101 29 93 c39 121 67 254 88 414 24 183 25 639 1 819 -53 397
-154 671 -303 822 -45 46 -90 82 -125 98 -82 38 -83 38 -75 -57z"/>
<path d="M4750 5679 c-485 -56 -834 -240 -973 -514 -24 -48 -45 -109 -152
-445 -196 -616 -399 -931 -745 -1158 -118 -78 -230 -124 -474 -193 -310 -88
-421 -126 -519 -177 -393 -201 -709 -649 -817 -1157 -31 -143 -39 -417 -16
-538 63 -331 267 -688 569 -996 223 -227 452 -379 653 -432 72 -19 96 -20 279
-14 307 9 467 30 590 76 74 27 95 40 170 104 373 317 812 560 1190 655 146 37
243 50 378 50 138 0 205 -11 353 -55 299 -91 562 -243 1054 -610 135 -100 264
-192 288 -204 75 -38 189 -61 332 -68 181 -8 628 13 699 33 143 41 333 168
520 349 216 208 365 410 481 650 108 224 140 359 140 583 0 656 -251 1199
-645 1400 -80 40 -255 91 -451 132 -318 65 -439 110 -589 218 -277 198 -390
410 -571 1072 -135 489 -177 587 -317 738 -251 271 -585 443 -962 497 -108 16
-344 18 -465 4z"/>
</g>
</svg>
